<svg xmlns="http://www.w3.org/2000/svg" viewBox="0 0 238.94 100" width="238.94" height="100"><path fill="#fbb03b" fill-rule="evenodd" d="M37.82 5.32A63.33 63.33 0 0 1 38.95.26l.4-.04c.26-.03.63-.05 1.07-.08.89-.09 2.06-.11 3.24-.14 1.18.02 2.35.04 3.24.11l1.07.08.41.04.18.69a68.87 68.87 0 0 1 1.48 7.31c.11.78.21 1.56.28 2.32l.85.17 1.36.32 1.04.29c.29.08.52.14.67.2l.23.08.89.3c.28.09.63.23 1.01.38.39.16.83.31 1.3.53l.79.35a65.6 65.6 0 0 1 7.57-7.24S68.1 7.08 70 8.49c.49.33.95.7 1.39 1.04a32.1 32.1 0 0 1 2.3 1.92l-.25.66-.71 1.73a70.23 70.23 0 0 1-2.41 5.04c-.38.7-.75 1.39-1.14 2.04l.59.64c.34.39.65.73.91 1.06l.67.85c.18.23.33.41.42.55l.14.2.55.76c.18.24.37.55.6.9.22.35.49.74.74 1.19l.4.69c0 .02.02.04.04.06l.81-.18a63.83 63.83 0 0 1 4.41-.75 62.04 62.04 0 0 1 5.16-.5l.17.37.19.42.23.57.56 1.41.57 1.65c.2.55.35 1.13.51 1.67.15.53.3 1.03.4 1.46l.34 1.44-.6.38a70.19 70.19 0 0 1-6.51 3.65c-.71.35-1.43.68-2.12.98.04.3.08.58.1.86l.12 1.4c.03.41.03.78.04 1.08l.03.94-.02.94c-.01.3 0 .66-.04 1.07l-.1 1.4-.1.86a75.36 75.36 0 0 1 3.49 1.63l1.3.68a87.43 87.43 0 0 1 4.48 2.63l-.33 1.45c-.09.44-.23.93-.38 1.47-.15.54-.3 1.12-.5 1.67-.19.56-.37 1.13-.56 1.65l-.55 1.41-.22.56-.19.43-.17.38-.7-.04-1.85-.13a58.97 58.97 0 0 1-5.54-.74l-1.48-.27-.81-.17c0 .02-.02.04-.03.05l-.4.7c-.25.45-.51.84-.73 1.2-.23.35-.42.66-.59.9l-.55.77-.14.2-.41.55-.66.84-.91 1.06-.58.65a61.34 61.34 0 0 1 3.6 7.06c.31.7.55 1.3.72 1.72l.26.66-1.11.97c-.33.3-.74.62-1.17.96-.44.34-.89.72-1.38 1.06-1.9 1.42-3.96 2.59-3.96 2.59l-.55-.45a64.42 64.42 0 0 1-7.07-6.75l-.78.36c-.47.23-.91.38-1.29.54-.39.15-.72.29-1.01.38l-.89.31-.24.08c-.15.06-.38.12-.67.2l-1.04.29c-.41.11-.86.21-1.36.33-.27.07-.55.13-.85.18-.07.76-.16 1.53-.27 2.32-.13 1-.29 12.53-.46 13.46a62.28 62.28 0 0 1-.96 4.37l-.18.69-.4.03-1.07.09c-.88.08-2.06.11-3.24.13-1.18-.02-2.36-.03-3.24-.11l-1.07-.08-.4-.04-.18-.69-.45-1.81c-.17-.74-.36-1.62-.53-2.55-.18-.93-.34-12.47-.48-13.47-.25-1.66 7.29-12.7 8.65-14.91 10.81-1.26 19.2-10.42 19.2-21.53s-8.09-19.94-18.62-21.45c-1.57-2.93-9.44-15.72-9.01-18.04Z"/><path fill="#111" fill-rule="evenodd" d="m2.9 26.63.71.04c.45.03 1.09.07 1.85.14.76.06 1.65.16 2.6.29a55.37 55.37 0 0 1 5.23.9l.03-.06.4-.7c.25-.45.51-.84.73-1.19.23-.35.41-.66.59-.9l.54-.77.14-.2c.09-.14.24-.32.42-.55l.66-.85.91-1.06c.18-.21.37-.43.58-.64a60.54 60.54 0 0 1-4.57-9.44l1.11-.97c.33-.3.74-.62 1.17-.96.44-.34.89-.71 1.38-1.06a44.19 44.19 0 0 1 3.96-2.59l.55.45 1.42 1.19c5.23 4.55 7.89 11.47 11.2 17.47a21.68 21.68 0 0 0-12.57 19.65c0 9.24 5.81 17.14 13.98 20.25-2.16 3.51-5.71 10.25-8.33 12.98a69.05 69.05 0 0 1-5.44 5.08l-.55.45s-2.07-1.16-3.98-2.56c-.49-.34-.95-.71-1.39-1.04-.44-.34-.85-.66-1.18-.95l-1.12-.97.26-.66a68.3 68.3 0 0 1 4.25-8.81l-.59-.64c-.33-.39-.64-.73-.91-1.06l-.67-.84a7.99 7.99 0 0 1-.42-.56l-.15-.2-.55-.77c-.18-.24-.37-.55-.6-.9-.23-.35-.49-.74-.74-1.19l-.4-.69-.03-.06c-.27.06-.54.13-.82.18l-1.47.3a60.18 60.18 0 0 1-7.39.92l-.7.04-.17-.37-.19-.42-.23-.56-.56-1.41-.57-1.65c-.2-.56-.35-1.13-.51-1.67-.15-.53-.3-1.03-.39-1.47l-.34-1.44.59-.38c.38-.25.93-.58 1.59-.98a70.19 70.19 0 0 1 3.56-1.99c.44-.23.9-.45 1.35-.67.72-.35 1.43-.68 2.12-.98-.04-.3-.08-.59-.1-.86l-.11-1.39c-.03-.41-.03-.78-.05-1.07l-.03-.94.02-.94c.01-.3 0-.66.04-1.08l.1-1.39.1-.86c-.69-.3-1.41-.63-2.13-.97-.46-.21-.92-.44-1.36-.66l-1.29-.68c-.84-.45-1.62-.9-2.28-1.28l-1.6-.97-.6-.38.33-1.45c.09-.43.24-.93.39-1.47.15-.53.3-1.11.5-1.67.19-.56.37-1.13.56-1.65L2.29 28l.22-.57.19-.43.16-.37Z"/><path d="M115.65 45.16c-2.09 0-3.86-.37-5.32-1.1a7.64 7.64 0 0 1-3.32-3.14 10.9 10.9 0 0 1-1.28-4.91 137.16 137.16 0 0 1 0-6.01c.09-1.89.52-3.52 1.3-4.89a7.85 7.85 0 0 1 3.34-3.16c1.45-.73 3.21-1.1 5.28-1.1 1.53 0 2.9.2 4.12.61 1.21.41 2.25.96 3.11 1.67a7.73 7.73 0 0 1 1.99 2.48c.47.94.72 1.97.74 3.07.02.2-.04.37-.19.51a.72.72 0 0 1-.52.2h-3.21a.93.93 0 0 1-.61-.19c-.16-.12-.27-.33-.34-.62-.36-1.49-.98-2.5-1.86-3.04a6.15 6.15 0 0 0-3.27-.81c-1.51 0-2.71.42-3.61 1.27-.9.84-1.38 2.23-1.45 4.17a76.56 76.56 0 0 0 0 5.67c.07 1.94.55 3.32 1.45 4.17.9.84 2.1 1.27 3.61 1.27 1.3 0 2.4-.28 3.29-.83.89-.55 1.5-1.56 1.84-3.02.07-.31.18-.53.34-.64.16-.11.36-.17.61-.17h3.21c.2 0 .38.07.52.2.15.14.21.3.19.51a7.09 7.09 0 0 1-.74 3.07 7.63 7.63 0 0 1-1.99 2.48 9.44 9.44 0 0 1-3.11 1.67c-1.22.41-2.59.61-4.12.61Zm18.66 0c-1.17 0-2.23-.23-3.17-.69s-1.69-1.08-2.24-1.86a4.44 4.44 0 0 1-.83-2.62c0-1.57.64-2.83 1.92-3.76a11.31 11.31 0 0 1 5.03-1.87l4.62-.67v-.71c0-.95-.24-1.68-.71-2.19-.47-.52-1.28-.78-2.43-.78-.81 0-1.47.16-1.97.49-.51.33-.88.76-1.13 1.3a.87.87 0 0 1-.78.44h-2.67c-.25 0-.43-.07-.56-.2a.79.79 0 0 1-.19-.54c.02-.36.17-.8.46-1.32.28-.52.71-1.02 1.28-1.5a7.5 7.5 0 0 1 2.24-1.23 9.7 9.7 0 0 1 3.34-.51c1.42 0 2.62.17 3.59.52a5.38 5.38 0 0 1 3.63 3.46c.27.79.41 1.62.41 2.5v10.6c0 .23-.08.42-.24.57a.78.78 0 0 1-.57.24h-2.73a.76.76 0 0 1-.59-.24.8.8 0 0 1-.22-.57V42.7c-.29.41-.69.8-1.18 1.18-.5.38-1.1.69-1.81.93-.71.24-1.55.35-2.51.35Zm1.15-3.21c.79 0 1.5-.17 2.14-.51s1.15-.86 1.52-1.57.56-1.6.56-2.68v-.71l-3.38.54a7.2 7.2 0 0 0-2.97.98c-.65.45-.98 1-.98 1.65 0 .5.15.92.46 1.27.3.35.69.61 1.16.78.47.17.97.25 1.49.25Zm20.59 3.21c-2.5 0-4.48-.72-5.94-2.16-1.46-1.44-2.25-3.49-2.36-6.14a9.94 9.94 0 0 1 0-1.69c.09-1.71.48-3.18 1.16-4.4a7.2 7.2 0 0 1 2.85-2.84c1.22-.66 2.64-1 4.29-1 1.82 0 3.35.38 4.59 1.13a7.12 7.12 0 0 1 2.8 3.14c.63 1.34.95 2.89.95 4.64v.71c0 .23-.08.42-.24.57a.82.82 0 0 1-.61.24h-11.21v.27c.02.79.17 1.51.46 2.18.28.66.7 1.2 1.25 1.6.55.4 1.21.61 1.97.61a3.93 3.93 0 0 0 2.64-.95c.27-.25.46-.45.57-.61.2-.27.37-.43.49-.49s.31-.08.56-.08h2.9c.22 0 .41.07.56.2.15.14.21.3.19.51-.02.36-.21.8-.56 1.32a6.7 6.7 0 0 1-1.5 1.52c-.65.5-1.47.91-2.45 1.23-.98.33-2.1.49-3.36.49Zm-3.72-10.64h7.46v-.1a5.7 5.7 0 0 0-.44-2.31 3.5 3.5 0 0 0-1.28-1.55c-.56-.37-1.24-.56-2.02-.56s-1.46.19-2.03.56c-.56.37-.98.89-1.27 1.55a5.88 5.88 0 0 0-.42 2.31v.1Zm23.49 10.3a7.45 7.45 0 0 1-3.41-.71 4.53 4.53 0 0 1-2.06-2.11 8.02 8.02 0 0 1-.67-3.49v-7.66h-2.67a.75.75 0 0 1-.57-.24.82.82 0 0 1-.24-.61v-1.92c0-.22.08-.42.24-.57a.78.78 0 0 1 .57-.24h2.67v-5.6a.78.78 0 0 1 .81-.81h2.73c.22 0 .42.08.57.24.16.16.24.35.24.57v5.6h4.22c.22 0 .42.08.57.24.16.16.24.35.24.57V30a.82.82 0 0 1-.81.85h-4.22v7.32c0 .92.16 1.64.49 2.16.33.52.89.78 1.7.78h2.33c.22 0 .42.08.57.24.16.16.24.35.24.57v2.09c0 .23-.08.42-.24.57a.78.78 0 0 1-.57.24h-2.73Zm11.65.34a7.13 7.13 0 0 1-3.17-.69 5.72 5.72 0 0 1-2.24-1.86 4.44 4.44 0 0 1-.83-2.62c0-1.57.64-2.83 1.92-3.76a11.31 11.31 0 0 1 5.03-1.87l4.62-.67v-.71c0-.95-.24-1.68-.71-2.19-.47-.52-1.28-.78-2.43-.78-.81 0-1.47.16-1.97.49-.51.33-.88.76-1.13 1.3a.87.87 0 0 1-.78.44h-2.67c-.25 0-.43-.07-.56-.2a.79.79 0 0 1-.19-.54c.02-.36.17-.8.46-1.32.28-.52.71-1.02 1.28-1.5a7.5 7.5 0 0 1 2.24-1.23 9.7 9.7 0 0 1 3.34-.51c1.42 0 2.62.17 3.59.52a5.38 5.38 0 0 1 3.63 3.46c.27.79.41 1.62.41 2.5v10.6c0 .23-.08.42-.24.57a.78.78 0 0 1-.57.24h-2.73a.76.76 0 0 1-.59-.24.8.8 0 0 1-.22-.57V42.7c-.29.41-.69.8-1.18 1.18-.5.38-1.1.69-1.81.93-.71.24-1.55.35-2.51.35Zm1.14-3.21c.79 0 1.5-.17 2.14-.51a3.6 3.6 0 0 0 1.52-1.57c.37-.71.56-1.6.56-2.68v-.71l-3.38.54a7.2 7.2 0 0 0-2.97.98c-.65.45-.98 1-.98 1.65 0 .5.15.92.46 1.27.3.35.69.61 1.16.78.47.17.97.25 1.48.25Zm13.84 2.87a.75.75 0 0 1-.57-.24.78.78 0 0 1-.24-.57V28.08c0-.22.08-.42.24-.57a.78.78 0 0 1 .57-.24h2.77c.22 0 .42.08.57.24.16.16.24.35.24.57v1.38a7.22 7.22 0 0 1 2.24-1.81c.91-.48 2.04-.73 3.39-.73s2.57.31 3.58.93a6.24 6.24 0 0 1 2.35 2.62c.55 1.13.83 2.48.83 4.05V44c0 .23-.08.42-.24.57a.78.78 0 0 1-.57.24h-2.97a.75.75 0 0 1-.57-.24.78.78 0 0 1-.24-.57v-9.28c0-1.3-.32-2.33-.96-3.07-.64-.74-1.57-1.11-2.78-1.11s-2.1.37-2.8 1.11a4.3 4.3 0 0 0-1.05 3.07V44c0 .23-.08.42-.24.57a.78.78 0 0 1-.57.24h-2.97Zm28.02.34c-1.8 0-3.31-.32-4.54-.95a6.51 6.51 0 0 1-2.8-2.67 9.28 9.28 0 0 1-1.1-4.02 30.8 30.8 0 0 1 0-2.98c.09-1.55.47-2.9 1.13-4.03a6.74 6.74 0 0 1 2.84-2.65c1.23-.63 2.72-.94 4.47-.94s3.25.32 4.47.94a6.8 6.8 0 0 1 2.84 2.65 8.96 8.96 0 0 1 1.13 4.03 31.1 31.1 0 0 1 0 2.98 9.28 9.28 0 0 1-1.1 4.02 6.57 6.57 0 0 1-2.8 2.67 9.87 9.87 0 0 1-4.54.95Zm0-3.35a3.5 3.5 0 0 0 2.77-1.13 5.36 5.36 0 0 0 1.08-3.32 23.38 23.38 0 0 0 0-2.64 5.36 5.36 0 0 0-1.08-3.32c-.65-.75-1.58-1.13-2.77-1.13s-2.12.38-2.77 1.13a5.36 5.36 0 0 0-1.08 3.32 23.38 23.38 0 0 0 0 2.64 5.36 5.36 0 0 0 1.08 3.32 3.47 3.47 0 0 0 2.77 1.13ZM107.34 75.5a.75.75 0 0 1-.57-.24.78.78 0 0 1-.24-.57V52.72a.82.82 0 0 1 .81-.85h9.05c1.76 0 3.28.28 4.59.83a6.54 6.54 0 0 1 3.04 2.5c.72 1.11 1.08 2.5 1.08 4.17s-.36 3.08-1.08 4.17a6.51 6.51 0 0 1-3.04 2.45c-1.31.54-2.83.81-4.59.81h-5.03v7.9c0 .23-.07.42-.22.57a.76.76 0 0 1-.59.24h-3.21Zm3.95-12.45h4.93c1.3 0 2.31-.31 3-.93.7-.62 1.05-1.54 1.05-2.75 0-1.12-.33-2.03-.98-2.72-.65-.69-1.68-1.03-3.07-1.03h-4.93v7.43Zm21.81 12.79a7.13 7.13 0 0 1-3.17-.69 5.8 5.8 0 0 1-2.24-1.86 4.44 4.44 0 0 1-.83-2.62c0-1.57.64-2.83 1.92-3.76a11.31 11.31 0 0 1 5.03-1.87l4.62-.68v-.71c0-.95-.24-1.68-.71-2.19-.47-.52-1.28-.78-2.43-.78-.81 0-1.47.16-1.97.49-.51.33-.88.76-1.13 1.3a.87.87 0 0 1-.78.44h-2.67c-.25 0-.43-.07-.56-.2a.79.79 0 0 1-.19-.54c.02-.36.17-.8.46-1.32.28-.52.71-1.02 1.28-1.5a7.5 7.5 0 0 1 2.24-1.23 9.7 9.7 0 0 1 3.34-.51c1.42 0 2.62.17 3.59.52a5.38 5.38 0 0 1 3.63 3.46c.27.79.4 1.62.4 2.5v10.6c0 .23-.08.42-.24.57a.78.78 0 0 1-.57.24h-2.73a.76.76 0 0 1-.59-.24.8.8 0 0 1-.22-.57v-1.32c-.29.41-.69.8-1.18 1.18-.5.38-1.1.69-1.81.93-.71.24-1.55.35-2.51.35Zm1.14-3.21c.79 0 1.5-.17 2.14-.51s1.15-.86 1.52-1.57c.37-.71.56-1.6.56-2.68v-.71l-3.38.54a7.2 7.2 0 0 0-2.97.98c-.65.45-.98 1-.98 1.65 0 .5.15.92.46 1.27.3.35.69.61 1.16.78.47.17.97.25 1.48.25Zm13.84 2.87a.75.75 0 0 1-.57-.24.78.78 0 0 1-.24-.57v-15.9a.82.82 0 0 1 .81-.85h2.73a.84.84 0 0 1 .84.85v1.38a5.06 5.06 0 0 1 2.01-1.65 6.71 6.71 0 0 1 2.85-.57h1.38c.25 0 .44.08.59.24a.8.8 0 0 1 .22.57v2.43c0 .23-.07.42-.22.57a.76.76 0 0 1-.59.24h-2.63a3.4 3.4 0 0 0-2.51.89c-.6.6-.89 1.43-.89 2.51v9.28c0 .23-.08.42-.24.57s-.36.24-.61.24h-2.94Zm21.2 0a7.45 7.45 0 0 1-3.41-.71 4.53 4.53 0 0 1-2.06-2.11 8.02 8.02 0 0 1-.67-3.49v-7.66h-2.67a.75.75 0 0 1-.57-.24.82.82 0 0 1-.24-.61v-1.92c0-.22.08-.42.24-.57a.78.78 0 0 1 .57-.24h2.67v-5.6a.78.78 0 0 1 .81-.81h2.73c.22 0 .42.08.57.24.16.16.24.35.24.57v5.6h4.22c.22 0 .42.08.57.24.16.16.24.35.24.57v1.92a.82.82 0 0 1-.81.85h-4.22v7.32c0 .92.16 1.64.49 2.16.33.52.89.78 1.7.78h2.33c.22 0 .42.08.57.24.16.16.24.35.24.57v2.09c0 .23-.08.42-.24.57s-.35.24-.57.24h-2.73Zm13.19.34c-1.35 0-2.5-.16-3.46-.47a7.7 7.7 0 0 1-2.35-1.18 5.52 5.52 0 0 1-1.35-1.42 2.78 2.78 0 0 1-.47-1.18.66.66 0 0 1 .22-.59.81.81 0 0 1 .56-.22h2.67c.09 0 .17.01.24.03.07.02.16.09.27.2l.93.78a4.35 4.35 0 0 0 2.85.98 4.3 4.3 0 0 0 2.21-.52c.6-.35.89-.85.89-1.5 0-.47-.13-.85-.39-1.15a3.38 3.38 0 0 0-1.43-.79 26.8 26.8 0 0 0-2.97-.76 12.55 12.55 0 0 1-3.14-1.11c-.83-.45-1.45-1.01-1.86-1.69s-.61-1.46-.61-2.36.26-1.72.79-2.51a5.82 5.82 0 0 1 2.36-1.97 8.74 8.74 0 0 1 3.9-.78c1.22 0 2.27.15 3.17.46.9.3 1.65.68 2.24 1.13.6.45 1.05.91 1.37 1.37.31.46.48.86.51 1.2a.7.7 0 0 1-.2.59.76.76 0 0 1-.54.22h-2.5a.6.6 0 0 1-.3-.07c-.09-.04-.18-.1-.27-.17l-.81-.73a3.98 3.98 0 0 0-1.06-.66 4.19 4.19 0 0 0-1.64-.27c-.86 0-1.51.19-1.96.56a1.75 1.75 0 0 0-.36 2.4c.21.28.65.55 1.3.79.65.25 1.64.51 2.97.78 1.51.27 2.71.67 3.59 1.2a4.96 4.96 0 0 1 1.89 1.82 4.75 4.75 0 0 1-.33 5.01 5.85 5.85 0 0 1-2.63 1.91 11.7 11.7 0 0 1-4.3.69Z"/></svg>
