<svg xmlns="http://www.w3.org/2000/svg" width="600.79" height="100" viewBox="0 0 600.79 100"><rect width="74.47" height="47.87" x="78.72" y="52.13" class="cls-1" rx="4.37" ry="4.37" transform="matrix(-1 0 0 -1 231.92 152.13)"/><path d="M70.1 100H17.51C7.85 100 .01 92.16.01 82.5v-26c0-2.41 1.96-4.37 4.37-4.37H70.1c2.41 0 4.37 1.96 4.37 4.37v39.12c0 2.41-1.96 4.37-4.37 4.37ZM227.54 47.87h-65.72c-2.41 0-4.37-1.96-4.37-4.37V4.38c0-2.41 1.96-4.37 4.37-4.37h56.97c7.24 0 13.12 5.88 13.12 13.12V43.5c0 2.41-1.96 4.37-4.37 4.37M214.41 100h-52.59c-2.41 0-4.37-1.96-4.37-4.37V56.51c0-2.41 1.96-4.37 4.37-4.37h65.72c2.41 0 4.37 1.96 4.37 4.37v26c0 9.66-7.84 17.5-17.5 17.5Z"/><rect width="74.47" height="47.87" x="78.72" class="cls-1" rx="4.37" ry="4.37" transform="matrix(-1 0 0 -1 231.92 47.87)"/><path d="M70.1 47.87H4.38c-2.41 0-4.37-1.96-4.37-4.37V13.13C.01 5.89 5.89.01 13.13.01H70.1c2.41 0 4.37 1.96 4.37 4.37V43.5c0 2.41-1.96 4.37-4.37 4.37M264.95 75.14c-4.56 0-8.28-3.71-8.28-8.28V33.39c0-4.56 3.71-8.28 8.28-8.28h57.38v8.56h-56.22v32.85h46.77V54.4h-33.82v-8.61h43.27v29.34h-57.38ZM344.77 75.14c-4.56 0-8.28-3.71-8.28-8.28V25.12h63.82v8.56h-54.38V45.8h52.87v8.61h-52.87v12.12h54.38v8.61h-55.55ZM498.68 75.14c-4.57 0-8.28-3.72-8.28-8.28V25.07h9.44v41.46h47.04v8.61zM421.56 75.14c-4.56 0-8.28-3.71-8.28-8.28V25.12h63.83v8.56h-54.38V45.8h52.88v8.61h-52.88v12.12h54.38v8.61zM560.43 75.14V55.98l-30.91-30.91h12.18l23.46 23.45 23.45-23.45h12.18l-30.91 30.91v19.16z"/></svg>
