<svg id="Layer_1" xmlns="http://www.w3.org/2000/svg" version="1.1" viewBox="0 0 198 85">
  <g id="BK">
    <path id="New_x5F_H-mark" d="M105.01239,31.79723c-3.94802.14526-8.07666.14526-12.02469,0-1.07135-.0394-2.27859-.09393-3.36698-.17465-1.12843-.08371-2.25899-.20383-3.36698-.40021-2.2575-.40043-4.29414-1.09819-6.15462-2.31608-1.85729-1.21619-3.32545-2.81214-4.60936-4.71394-.6311-.93504-1.2017-1.91991-1.73674-2.91757-.52183-.97274-1.04899-2.03322-1.52247-3.0083-1.09989-2.26389-2.30798-4.89967-3.40191-7.28604-1.17273-2.55846-2.20426-4.81043-3.24579-7.0215-.15037-.31906-.33184-.71246-.51757-1.02151-.20128-.3344-.43067-.61832-.73269-.84622-.30224-.22769-.63834-.37018-1.01533-.47135-.34846-.09372-.77636-.15996-1.12439-.21661-1.54036-.25069-3.50074-.55783-4.82917-.75357-.32971-.04856-.67178-.10948-.86006.08434s-.11608.53312-.05772.86134c.92715,5.20425,3.07454,17.09795,5.36485,29.76012,2.29414,12.68304,4.36123,24.08707,5.24302,28.87279.04579.24814.08072.49095.25027.61917s.41278.09563.6639.07199c2.19318-.20639,4.47518-.42833,6.63364-.64217.28903-.02854.63599-.05964.91075-.11693.29798-.06198.5574-.15996.78381-.33099.22641-.17125.39169-.39404.53312-.66368.13035-.24877.25516-.57359.36187-.84387.77827-1.97167,1.56933-4.01575,2.38658-6.0624.27327-.68413.5968-1.48988.8852-2.16102.30564-.71097.62811-1.40681.99105-2.06176.73972-1.33482,1.60617-2.42193,2.7738-3.2477,1.164-.82364,2.49456-1.29222,3.9985-1.57359.73887-.13802,1.50522-.22833,2.27561-.29627.74419-.06539,1.57891-.11651,2.33056-.15612,4.03641-.21235,8.29903-.21235,12.33544,0,.75165.03962,1.58615.09073,2.33035.15612.77061.06794,1.53674.15825,2.27561.29627,1.50415.28136,2.8345.74995,3.99871,1.57359,1.16741.82577,2.03386,1.91288,2.77358,3.2477.36294.65495.68541,1.3508.99105,2.06176.28839.67114.61193,1.47689.8852,2.16102.57742,1.44579,1.14143,2.8903,1.69733,4.30883.2311.58956.4607,1.17465.68924,1.75356.09308.23536.2049.52439.31289.74654.11757.24153.2509.45367.42897.62875.31459.30905.69798.4345,1.17018.50437.20469.03024.46837.05516.67753.07583.43812.04345.88115.08711,1.32737.13099,1.75356.1721,3.55803.34675,5.30649.51118.17082.01597.3574.03834.50415.00213.15527-.03855.25282-.13546.31438-.29201.04537-.11544.07093-.2688.09542-.40128.80426-4.36506,2.53162-13.88879,4.56996-25.15182,1.68285-9.29903,3.45346-19.09773,4.67156-25.86407.57018-3.16655,1.02747-5.71522,1.36634-7.61703.02258-.12673.05197-.28285.0607-.40873.0181-.26155-.04601-.45687-.2524-.54143-.19787-.08136-.47348-.03259-.72588.00447-1.32865.19574-3.28903.50287-4.82917.75357-.34824.05666-.77614.1229-1.1246.21661-.37678.10117-.7131.24366-1.01512.47135-.30224.2279-.53163.51182-.73269.84622-.18594.30905-.36741.70245-.51778,1.02151-1.04153,2.21107-2.07305,4.46304-3.24579,7.0215-1.09371,2.38636-2.30202,5.02214-3.4017,7.28604-.94356,1.94249-2.02982,4.10457-3.25942,5.92587-1.2837,1.90181-2.75207,3.49776-4.60936,4.71394-1.86049,1.21789-3.89712,1.91565-6.15441,2.31608-2.13865.37934-4.59573.49627-6.73417.57487"/>
    <g id="HAT_x5F_Honda">
      <path id="a" d="M143.29437,75.09028h-11.15031v1.86574h10.94669c.47454,0,.6336.07416.76654.19573.14948.13669.24323.29782.24323.67466v.98479l-10.85436.0003c-1.12719,0-1.77123.21356-2.24191.56671-.57096.42839-.87417,1.02199-.87417,2.06412v.32559c0,1.04212.30307,1.63549.87382,2.06388.47069.35329,1.11507.56694,2.24226.56694h13.30274v-6.69221c0-1.05443-.3048-1.62448-.87868-2.05292-.47034-.35114-1.02003-.56334-2.37585-.56334ZM144.10051,82.53257h-9.9449l-.6493.00058c-.42035,0-.57362-.08367-.7089-.21896s-.21895-.31908-.21895-.59556v-.22691c0-.27648.08367-.46027.21895-.59556s.28855-.21896.7089-.21896h10.5942v1.85535Z"/>
      <path id="d" d="M124.74935,72.17616v2.91919h-10.46944c-1.47737,0-2.20982.23183-2.68406.6118-.53285.42692-.8152.97998-.8152,2.51849v3.04332c0,1.53851.28235,2.09157.8152,2.51849.47424.37997,1.20669.6118,2.68406.6118h12.91752v-12.22309h-2.44808ZM115.05195,82.26238c-1.3176,0-1.43492-.04754-1.59794-.2145s-.22498-.28126-.22498-1.43182v-1.74296c0-1.15056.06196-1.26487.22498-1.43182.16302-.16695.28034-.2145,1.59794-.2145h9.6974v5.0356h-9.6974Z"/>
      <path id="n" d="M106.91308,75.70262c-.47448-.38015-1.20728-.6121-2.68537-.6121l-12.78897-.00024v9.30844h2.44839v-7.17143l9.56936-.0003c1.31824,0,1.4356.04756,1.5987.2146s.22509.2814.22509,1.43252v5.52501h2.44839v-6.17678c.00002-1.53926-.28247-2.09259-.81558-2.51972Z"/>
      <path id="o" d="M87.47458,75.64217c-.47776-.38279-1.21564-.61634-2.70397-.61634h-9.46501c-1.48833,0-2.22621.23355-2.70397.61634-.5368.43009-.82124.98725-.82124,2.53717v3.06589c0,1.54992.28445,2.10708.82124,2.53717.47776.38279,1.21564.61634,2.70397.61634h9.46501c1.48833,0,2.22621-.23355,2.70397-.61634.5368-.43009.82124-.98725.82124-2.53717v-3.06589c0-1.54992-.28445-2.10708-.82124-2.53717ZM85.84744,80.60384c0,1.15909-.06242,1.27425-.22664,1.44244s-.28242.21609-1.60979.21609h-7.94581c-1.32737,0-1.44556-.04789-1.60979-.21609s-.22664-.28335-.22664-1.44244v-1.78299c0-1.15909.06242-1.27425.22664-1.44244s.28242-.21609,1.60979-.21609h7.94581c1.32737,0,1.44556.04789,1.60979.21609s.22664.28335.22664,1.44244v1.78299Z"/>
      <path id="H" d="M66.00858,84.39874v-4.86713h-11.92859v4.86713h-2.62889v-11.69734h2.62889v4.61788h11.92859v-4.61788h2.62889v11.69734h-2.62889Z"/>
    </g>
  </g>
</svg>
