<svg xmlns="http://www.w3.org/2000/svg" viewBox="0 0 160 60">
  <!-- MINI wings logo -->
  <!-- Left wing -->
  <path d="M10,30 C10,18 18,10 30,10 C38,10 44,14 48,20 L44,24 C42,20 38,16 30,16 C22,16 16,22 16,30 C16,38 22,44 30,44 C38,44 42,40 44,36 L48,40 C44,46 38,50 30,50 C18,50 10,42 10,30 Z" fill="#1a1a1a"/>
  <!-- Right wing -->
  <path d="M150,30 C150,18 142,10 130,10 C122,10 116,14 112,20 L116,24 C118,20 122,16 130,16 C138,16 144,22 144,30 C144,38 138,44 130,44 C122,44 118,40 116,36 L112,40 C116,46 122,50 130,50 C142,50 150,42 150,30 Z" fill="#1a1a1a"/>
  <!-- Center circle with MINI -->
  <circle cx="80" cy="30" r="26" fill="#1a1a1a"/>
  <circle cx="80" cy="30" r="22" fill="white"/>
  <text x="80" y="35" font-family="Arial Black, Arial, sans-serif" font-size="13" font-weight="900"
        fill="#1a1a1a" text-anchor="middle">MINI</text>
</svg>
